<?xml version="1.0" standalone="no"?>
<!DOCTYPE svg PUBLIC "-//W3C//DTD SVG 20010904//EN"
 "http://www.w3.org/TR/2001/REC-SVG-20010904/DTD/svg10.dtd">
<svg version="1.0" xmlns="http://www.w3.org/2000/svg"
 width="700.000000pt" height="700.000000pt" viewBox="0 0 700.000000 700.000000"
 preserveAspectRatio="xMidYMid meet">
<metadata>
Created by potrace 1.14, written by Peter Selinger 2001-2017
</metadata>
<g transform="translate(0.000000,700.000000) scale(0.100000,-0.100000)"
fill="#000000" stroke="none">
<path d="M895 6990 c-223 -24 -424 -119 -588 -279 -172 -167 -271 -372 -297
-616 -13 -121 -13 -5069 0 -5190 12 -112 40 -221 80 -311 105 -234 324 -439
559 -524 192 -70 -56 -64 2776 -67 1672 -3 2595 0 2660 6 243 25 432 111 603
275 178 171 279 381 303 630 11 119 11 5053 0 5172 -23 238 -111 431 -274 601
-172 179 -372 276 -622 303 -106 11 -5093 11 -5200 0z m2660 -1171 c313 -27
574 -115 816 -277 430 -288 699 -781 781 -1432 18 -144 18 -816 0 -960 -58
-458 -207 -837 -443 -1126 -60 -73 -235 -244 -250 -244 -5 0 -9 -4 -9 -9 0 -6
162 -136 360 -291 198 -154 360 -283 360 -285 0 -2 -91 -85 -202 -186 -112
-100 -219 -198 -239 -217 l-37 -34 -455 359 -454 360 -74 -14 c-128 -23 -406
-28 -549 -9 -409 55 -721 211 -997 500 -263 275 -442 670 -507 1117 -40 270
-45 744 -11 1031 52 443 210 847 445 1133 346 421 882 635 1465 584z"/>
<path d="M3272 5199 c-481 -56 -787 -429 -879 -1074 -15 -107 -18 -193 -18
-490 0 -237 5 -392 13 -455 73 -536 272 -883 597 -1036 160 -76 336 -104 519
-85 232 25 379 89 527 229 200 189 319 465 371 857 18 139 18 833 0 970 -90
670 -388 1032 -892 1085 -107 11 -135 11 -238 -1z"/>
</g>
</svg>
